<svg width="450" height="486" viewBox="0 0 450 486" fill="none" xmlns="http://www.w3.org/2000/svg">
<path d="M222.509 485.162C221.396 485.162 220.3 484.894 219.313 484.38L4.03048 372.142C2.90809 371.557 1.96755 370.676 1.31123 369.594C0.654914 368.511 0.307954 367.27 0.308106 366.005V126.015C0.308999 124.776 0.642723 123.559 1.2744 122.493C1.90609 121.427 2.81253 120.55 3.89902 119.954L219.174 1.69579C220.188 1.14472 221.324 0.856049 222.478 0.856049C223.632 0.856049 224.768 1.14472 225.782 1.69579L446.046 119.919C447.148 120.511 448.069 121.39 448.711 122.464C449.353 123.537 449.692 124.764 449.692 126.015V366.005C449.692 367.281 449.339 368.532 448.672 369.62C448.006 370.708 447.051 371.59 445.914 372.169L225.65 484.408C224.677 484.904 223.601 485.162 222.509 485.162ZM14.1459 361.812L222.544 470.439L435.854 361.749V130.152L222.544 15.6305L14.1459 130.111V361.812Z" fill="white"/>
<path d="M113.495 190.818C112.337 190.818 111.197 190.528 110.181 189.973L3.91286 132.09L10.5135 119.94L113.467 176.018L327.476 59.3857L334.098 71.5354L116.802 189.973C115.787 190.527 114.65 190.817 113.495 190.818Z" fill="white"/>
<path d="M330.79 190.818C329.608 190.818 328.446 190.515 327.414 189.939L115.833 71.4938L122.593 59.4203L330.922 176.039L439.597 119.843L445.949 132.131L333.966 190.043C332.985 190.551 331.896 190.817 330.79 190.818Z" fill="white"/>
<path d="M106.576 183.899H120.414V421.889H106.576V183.899Z" fill="white"/>
<path d="M222.509 372.923C221.338 372.923 220.185 372.626 219.16 372.059L3.87827 252.839L10.5827 240.731L222.599 358.145L439.556 244.155L445.997 256.409L225.692 372.135C224.71 372.649 223.618 372.919 222.509 372.923Z" fill="white"/>
<path d="M215.59 366.005H229.428V478.243H215.59V366.005Z" fill="white"/>
<path d="M323.871 183.899H337.709V423.03H323.871V183.899Z" fill="white"/>
<path d="M116.843 313.22L110.146 301.119L215.59 242.716V126.015H229.428V246.785C229.428 248.021 229.097 249.234 228.469 250.299C227.841 251.363 226.94 252.24 225.858 252.839L116.843 313.22Z" fill="white"/>
<path d="M219.041 252.93L225.78 240.85L334.014 301.228L327.275 313.308L219.041 252.93Z" fill="white"/>
</svg>
